HIERARCHY
ROOT Hips
{
  OFFSET 12.8747 98.2847 -117.19
  CHANNELS 6 Xposition Yposition Zposition Zrotation Xrotation Yrotation
  JOINT ToSpine
  {
    OFFSET -2.69724 7.43032 -0.144315
    CHANNELS 3 Zrotation Xrotation Yrotation
    JOINT Spine
    {
      OFFSET -0.0310711 10.7595 1.96963
      CHANNELS 3 Zrotation Xrotation Yrotation
      JOINT Spine1
      {
        OFFSET 13.1342 3.43533 0.764692
        CHANNELS 3 Zrotation Xrotation Yrotation
        JOINT Neck
        {
          OFFSET 29.8703 7.82586 -0.130764
          CHANNELS 3 Zrotation Xrotation Yrotation
          JOINT Head
          {
            OFFSET 9.52751 0.295786 -0.907742
            CHANNELS 3 Zrotation Xrotation Yrotation
            End Site
            {
              OFFSET 16.4037 0.713936 2.7358
            }
          }
        }
        JOINT LeftShoulder
        {
          OFFSET 27.5574 4.95586 2.47156
          CHANNELS 3 Zrotation Xrotation Yrotation
          JOINT LeftArm
          {
            OFFSET 1.20734 -0.998971 20.1238
            CHANNELS 3 Zrotation Xrotation Yrotation
            JOINT LeftForeArm
            {
              OFFSET 26.8049 -0.0536703 -0.155908
              CHANNELS 3 Zrotation Xrotation Yrotation
              JOINT LeftHand
              {
                OFFSET 26.6817 0 0.320147
                CHANNELS 3 Zrotation Xrotation Yrotation
                End Site
                {
                  OFFSET 18.6119 0 0.382219
                }
              }
            }
          }
        }
        JOINT RightShoulder
        {
          OFFSET 27.5927 4.71444 -2.65209
          CHANNELS 3 Zrotation Xrotation Yrotation
          JOINT RightArm
          {
            OFFSET 2.83739 -1.17114 -18.7564
            CHANNELS 3 Zrotation Xrotation Yrotation
            JOINT RightForeArm
            {
              OFFSET 28.839 -0.0548439 1.22491
              CHANNELS 3 Zrotation Xrotation Yrotation
              JOINT RightHand
              {
                OFFSET 26.5114 0 -0.101894
                CHANNELS 3 Zrotation Xrotation Yrotation
                End Site
                {
                  OFFSET 18.2168 0 0
                }
              }
            }
          }
        }
      }
    }
  }
  JOINT LeftUpLeg
  {
    OFFSET -4.76168 -1.9167 -10.2353
    CHANNELS 3 Zrotation Xrotation Yrotation
    JOINT LeftLeg
    {
      OFFSET 2.55951 -42.0585 -8.02213
      CHANNELS 3 Zrotation Xrotation Yrotation
      JOINT LeftFoot
      {
        OFFSET 3.16357 -42.5282 -3.95426
        CHANNELS 3 Zrotation Xrotation Yrotation
        JOINT LeftToeBase
        {
          OFFSET 0.346054 -6.02161 12.8035
          CHANNELS 3 Zrotation Xrotation Yrotation
          End Site
          {
            OFFSET 0.134235 -1.35082 5.13018
          }
        }
      }
    }
  }
  JOINT RightUpLeg
  {
    OFFSET -4.94151 -1.41743 10.6446
    CHANNELS 3 Zrotation Xrotation Yrotation
    JOINT RightLeg
    {
      OFFSET -2.56294 -42.0364 -7.94377
      CHANNELS 3 Zrotation Xrotation Yrotation
      JOINT RightFoot
      {
        OFFSET -3.0952 -42.555 -4.02241
        CHANNELS 3 Zrotation Xrotation Yrotation
        JOINT RightToeBase
        {
          OFFSET -0.0828122 -6.13587 12.8035
          CHANNELS 3 Zrotation Xrotation Yrotation
          End Site
          {
            OFFSET -0.131328 -1.35082 5.13018
          }
        }
      }
    }
  }
}
MOTION
Frames:	17
Frame Time:	0.0333333
95.9364 97.309 -131.191 3.54194 -68.4833 -86.2112 -70.1915 0 88.8779 93.2098 74.5393 -12.6239 -1.7076 25.09 -0.582266 -146.423 25.3899 -176.603 177.122 63.0986 -137.408 1.08698 -9.95234 -28.8656 -78.2943 30.8721 -99.8805 34.7039 -17.7555 -112.986 0.420957 0.00057542 0.35866 -2.70813 8.13645 47.3839 -92.8745 -31.2633 68.1448 1.36335 -31.1474 18.5211 0.58676 0.000331159 0.0646653 -42.5116 11.5133 104.388 -1.61809 32.9491 4.6502 -0.792486 -15.7275 -1.34169 -0.517959 -5.00795 18.0747 -51.0765 -5.23516 72.7169 2.79893 28.4586 -4.23843 -11.4062 -14.8582 1.30609 2.6206 -5.50156 -17.1273 
97.5715 97.3146 -131.468 3.97218 -69.0297 -85.0404 -70.1915 0 88.8779 95.8677 73.8491 -14.5458 -2.39088 24.4287 -0.218904 -147.344 25.0094 -176.376 177.556 62.8773 -138.914 1.10354 -9.85646 -28.6385 -78.8049 31.4984 -99.2944 32.7347 -17.098 -113.792 0.420957 0.00057542 0.35866 -2.69425 8.13181 47.2403 -93.7299 -30.9538 66.6741 1.86432 -30.5871 18.8869 0.58676 0.000331159 0.0646653 -43.6612 13.4401 108.291 -2.14603 31.9143 4.33132 -2.62877 -10.3716 -0.818068 -1.31801 -2.88997 14.9024 -52.5122 -5.29875 74.011 3.33777 26.5893 -8.85278 -11.9055 -14.2458 1.32048 2.29752 -5.38308 -14.3467 
99.2328 97.1948 -131.736 5.12335 -69.473 -83.5705 -70.1915 0 88.8779 97.5437 73.381 -15.9206 -2.85844 23.9324 0.195639 -147.664 24.876 -177.196 -179.811 63.2184 -141.881 1.04673 -10.1781 -29.3634 -79.4545 31.3051 -98.717 31.2542 -16.5412 -114.342 0.420957 0.00057542 0.35866 -2.60156 7.91088 47.0232 -94.9991 -29.6928 65.6313 0.885395 -30.2568 17.9964 0.58676 0.000331159 0.0646653 -43.4433 13.7009 110.248 -2.03318 33.3758 1.26594 -4.26369 -10.4113 -0.75925 -1.2067 -2.29869 12.4266 -52.5466 -6.43816 73.3423 3.17266 27.6174 -5.93626 -9.71501 -14.7625 1.30538 2.86984 -4.18685 -18.8774 
100.619 97.0398 -131.98 6.36228 -69.4423 -82.0186 -70.1915 0 88.8779 96.3643 73.4614 -14.9922 -2.65667 23.6416 1.08046 -147.79 25.1419 -177.801 -179.926 63.5211 -141.381 0.912616 -10.8408 -30.6073 -79.7858 30.9779 -98.6212 31.2605 -16.3609 -114.104 0.420957 0.00057542 0.35866 -2.63366 7.93003 47.3342 -95.9146 -28.6958 64.3892 0.0314021 -27.6106 17.6263 0.58676 0.000331159 0.0646653 -42.1707 13.9953 110.863 -1.95767 36.4981 -3.52701 -5.77507 -11.5991 -0.850772 -0.385482 -3.74387 12.7845 -51.7523 -7.47833 72.2104 2.81402 29.3103 -2.92459 -9.92555 -15.9523 1.29599 3.35027 -2.82012 -21.9037 
101.842 96.9412 -132.218 6.34566 -69.9618 -81.7439 -70.1915 0 88.8779 98.3 73.6549 -16.7464 -2.69176 23.9426 1.17095 -147.581 25.3169 -179.551 -177.95 64.067 -143.409 0.854214 -11.1208 -30.9373 -79.2669 31.3922 -99.0321 32.7333 -16.6647 -113.26 0.420957 0.00057542 0.35866 -2.61132 7.75753 47.7808 -97.05 -27.5392 63.5251 0.132638 -30.291 16.9902 0.58676 0.000331159 0.0646653 -41.4128 12.8146 106.261 -2.81635 39.612 -8.46952 -5.97789 -9.56828 -0.57728 3.98791 -10.8772 12.2329 -51.7301 -7.11035 74.016 2.35298 29.5474 -4.52003 -9.11889 -16.4558 1.30552 3.16913 -1.21531 -19.9574 
103 96.7727 -132.35 6.40928 -70.0539 -81.2432 -70.1915 0 88.8779 97.1996 73.9551 -15.1825 -1.97021 24.2499 0.882402 -147.986 25.3857 178.434 -175.322 64.592 -146.717 0.915447 -10.8256 -30.7212 -78.0315 32.3065 -99.9169 35.4539 -17.43 -112.04 0.420957 0.00057542 0.35866 -2.5548 7.49594 48.216 -97.4407 -26.9006 63.7452 -0.219556 -33.7032 15.9802 0.58676 0.000331159 0.0646653 -40.8223 10.4583 98.5285 -3.61606 41.8852 -15.0706 -5.4595 -8.69823 -0.485063 9.40067 -19.2829 15.5127 -51.5357 -6.94311 75.4259 2.20383 29.8541 -6.41027 -7.88109 -17.0462 1.32799 2.7078 0.944532 -16.6787 
104.133 96.7652 -132.381 6.66638 -69.8043 -80.7888 -70.1915 0 88.8779 94.6902 74.3002 -12.3439 -1.52225 24.4329 0.998622 -148.435 25.8625 178.556 -175.757 65.0423 -146.603 0.940069 -10.6983 -30.9188 -77.0652 33.3127 -99.6856 35.2031 -17.0627 -111.809 0.420957 0.00057542 0.35866 -2.51371 7.48329 47.7417 -97.4949 -27.2774 63.3684 -0.383481 -33.3617 15.8838 0.58676 0.000331159 0.0646653 -41.1585 7.16756 91.2799 -3.93478 42.0902 -18.48 -4.4788 -10.6697 -0.777424 10.7822 -21.3082 15.8732 -51.7554 -7.08666 76.3317 2.15813 28.9324 -8.63605 -8.31963 -16.5065 1.31596 2.32941 1.36095 -14.4157 
105.209 96.7985 -132.519 3.50723 -69.8992 -84.2187 -70.1915 0 88.8779 95.2094 74.8745 -12.69 -2.01456 25.033 1.22582 -149.101 26.0685 179.107 -176.055 65.2162 -146.731 1.01801 -10.317 -31.1179 -76.6706 34.6242 -98.3635 35.0576 -17.1635 -112.033 0.420957 0.00057542 0.35866 -2.50314 7.57417 47.23 -96.9965 -27.422 63.5317 -0.459224 -33.9102 15.7943 0.58676 0.000331159 0.0646653 -42.6048 4.70567 88.2158 -3.90406 40.8461 -19.1993 -3.88402 -13.035 -1.07061 12.273 -23.1375 18.5943 -51.9224 -7.6402 76.9527 2.09315 27.916 -9.38505 -8.17986 -15.7227 1.31356 2.00942 1.53262 -12.5763 
106.264 96.8486 -132.767 0.0107391 -70.0663 -88.3306 -70.1915 0 88.8779 97.1621 75.7153 -15.104 -2.91977 25.7638 2.18915 -149.58 26.569 179.792 -175.837 65.71 -147.036 0.938088 -10.6867 -31.7819 -76.5108 35.4341 -96.6027 33.2164 -16.673 -112.878 0.420957 0.00057542 0.35866 -2.39116 7.47308 46.2139 -97.2315 -27.4306 63.4645 -0.279235 -33.9201 15.92 0.58676 0.000331159 0.0646653 -43.777 3.37871 88.4951 -3.3599 39.1108 -15.219 -2.77321 -15.6528 -1.3734 11.2911 -21.9607 16.4491 -51.6436 -8.58902 77.2042 1.89861 27.5512 -7.34976 -8.38078 -14.1517 1.3023 2.13905 3.02292 -13.3696 
107.011 96.9883 -133.021 -0.39844 -69.8971 -88.9265 -70.1915 0 88.8779 96.0056 75.6979 -13.8523 -2.70216 25.7543 1.9055 -150.225 26.6372 -179.754 -176.559 65.7267 -146.602 0.931366 -10.7282 -31.5789 -76.777 35.9023 -94.729 32.1205 -16.2411 -113.226 0.420957 0.00057542 0.35866 -2.44977 7.66044 46.1842 -96.9016 -27.5741 64.0176 -0.379551 -32.3171 16.1898 0.58676 0.000331159 0.0646653 -44.0896 2.48945 88.4974 -3.40417 38.2277 -16.4 -0.724516 -15.2593 -1.31374 11.5759 -22.2044 18.5852 -51.8113 -9.00268 77.563 2.05655 26.0271 -6.40965 -8.51144 -11.7791 1.29483 1.92897 5.88925 -12.4366 
107.595 96.963 -133.294 -0.103671 -70.189 -88.6202 -70.1915 0 88.8779 97.1535 75.9208 -15.8443 -2.88836 25.5977 3.33208 -151.183 26.9865 -178.975 -177.237 66.034 -146.451 0.804418 -11.2903 -32.3894 -77.2958 35.7633 -94.223 32.9883 -16.3283 -112.635 0.420957 0.00057542 0.35866 -2.3419 7.47727 45.5625 -97.3077 -27.8988 64.455 0.490709 -33.9316 16.6068 0.58676 0.000331159 0.0646653 -44.2614 2.20049 88.557 -3.48912 38.3621 -17.395 -1.43559 -16.4977 -1.43533 11.72 -22.2709 20.228 -51.8662 -9.39464 77.6067 2.0051 26.2115 -8.2237 -9.19713 -11.9069 1.31294 1.11288 6.28457 -8.67356 
108.08 97.0324 -133.36 1.08821 -70.8232 -87.6621 -70.1915 0 88.8779 97.1786 75.7629 -15.8832 -1.97343 25.6424 2.49998 -151.011 26.8744 -179.866 -175.511 66.1037 -148.142 0.758104 -11.5236 -32.256 -77.3012 35.2546 -93.6666 32.3752 -15.9418 -112.639 0.420957 0.00057542 0.35866 -2.35104 7.45916 45.7644 -98.3655 -27.8412 64.9035 0.0714566 -33.8019 16.0786 0.58676 0.000331159 0.0646653 -45.043 1.79723 89.011 -3.49476 38.0898 -17.7635 -1.25459 -16.5047 -1.43385 11.7033 -22.345 18.938 -52.8185 -10.0441 77.3488 1.95796 25.7506 -8.53587 -9.04132 -11.618 1.30919 0.972663 6.89915 -8.18367 
108.584 97.0728 -133.395 0.778974 -70.5354 -88.3205 -70.1915 0 88.8779 97.1202 75.3469 -15.1897 -2.47443 25.6471 1.24003 -150.69 26.6258 179.828 -175.5 65.8593 -148.236 0.952116 -10.6304 -31.0817 -76.6434 35.9663 -93.5938 34.0507 -16.3229 -111.804 0.420957 0.00057542 0.35866 -2.43793 7.56655 46.4192 -96.3791 -28.5063 66.1342 -0.101571 -31.9981 16.634 0.58676 0.000331159 0.0646653 -44.996 1.1335 89.084 -3.52369 37.7268 -18.5749 -0.87687 -16.0325 -1.38389 11.9802 -22.7305 18.786 -52.5809 -10.1193 78.2443 1.56885 25.1469 -7.69799 -8.92989 -10.8837 1.30579 1.20789 9.21795 -9.60331 
109.132 97.052 -133.381 0.371854 -70.1173 -89.082 -70.1915 0 88.8779 93.8249 75.4441 -11.2984 -2.0837 25.8172 0.532511 -150.68 26.8137 179.942 -175.463 66.0451 -148.479 0.967436 -10.562 -31.1136 -76.5257 36.3209 -93.2239 38.1971 -17.5887 -110.241 0.420957 0.00057542 0.35866 -2.43131 7.63861 46.0388 -95.7002 -29.3573 66.5129 0.309882 -30.6559 17.3531 0.58676 0.000331159 0.0646653 -44.7263 0.13214 88.8144 -3.54343 37.6936 -18.9317 -1.17017 -16.0506 -1.3895 12.1764 -22.854 20.3568 -52.0178 -10.6805 78.4515 1.37699 25.144 -7.35495 -8.98655 -10.3455 1.30858 1.05654 8.85942 -8.92063 
109.414 97.0958 -133.358 -0.29812 -69.8989 -89.9949 -70.1915 0 88.8779 91.1999 75.7198 -8.87495 -1.93671 25.8582 1.03729 -150.805 26.8553 -179.446 -176.146 66.0042 -147.744 0.929382 -10.7307 -31.7113 -76.7994 36.2818 -92.6029 33.6631 -15.839 -111.508 0.420957 0.00057542 0.35866 -2.38916 7.67382 45.3592 -96.264 -29.7541 66.4582 0.777525 -31.1811 17.5835 0.58676 0.000331159 0.0646653 -44.7386 -0.165478 89.1126 -3.4938 37.28 -18.7842 -1.05865 -15.6269 -1.34888 12.2374 -22.9313 20.3582 -51.7716 -11.0134 78.4925 1.3358 24.9223 -7.59618 -9.65327 -10.0397 1.33619 0.627371 8.68383 -7.05397 
109.685 97.1263 -133.229 -0.470023 -69.9524 -90.3658 -70.1915 0 88.8779 89.7031 75.659 -7.24359 -1.56838 25.8166 0.808067 -150.899 26.7832 -179.512 -175.714 65.9769 -148.32 0.961009 -10.5829 -31.5827 -77.2729 36.7811 -92.0459 33.6057 -15.7462 -111.437 0.420957 0.00057542 0.35866 -2.39312 7.65358 45.4928 -95.9769 -29.7042 67.0799 0.687361 -31.3897 17.5084 0.58676 0.000331159 0.0646653 -44.9716 -0.38042 89.3892 -3.43165 37.0409 -18.18 -0.963218 -15.9248 -1.37626 11.1197 -21.5284 19.7832 -52.1726 -11.1841 78.6427 1.18576 24.224 -8.34517 -9.60679 -9.887 1.33539 0.0824179 8.92349 -4.82323 
109.789 97.2189 -133.085 -0.222251 -70.1625 -90.1944 -70.1915 0 88.8779 89.2575 75.6763 -6.97756 -1.46277 25.7275 1.10223 -150.837 26.8501 -179.54 -175.559 66.053 -148.438 0.924793 -10.7538 -31.6859 -77.2605 37.139 -91.6691 32.9877 -15.1657 -111.176 0.420957 0.00057542 0.35866 -2.37042 7.64498 45.2395 -94.7723 -30.4339 67.7016 0.685217 -29.2475 18.0511 0.58676 0.000331159 0.0646653 -45.3843 -0.626879 89.1274 -3.3171 36.7348 -17.073 -1.49933 -16.7651 -1.46246 9.32023 -19.1523 17.3269 -52.8107 -11.1735 78.7117 1.06939 23.5373 -8.98692 -9.96584 -9.36849 1.35579 -0.0969374 8.53063 -3.94695 
